<svg xmlns="http://www.w3.org/2000/svg" xmlns:xlink="http://www.w3.org/1999/xlink" width="25" height="25" id="folder"><defs><linearGradient id="a"><stop offset="0" stop-color="#ffd800"></stop><stop offset="1" stop-color="#ff6100"></stop></linearGradient><linearGradient id="b" x1="906.952" x2="931.379" y1="515.915" y2="546.094" gradientTransform="translate(-723.291 614.331) scale(.80097)" gradientUnits="userSpaceOnUse" xlink:href="#a"></linearGradient></defs><g transform="translate(0 -1027.362)"><rect width="25" height="25" y="1027.362" fill="url(#b)" rx="5.283" ry="5.283"></rect><path style="text-indent:0;text-align:start;line-height:normal;text-transform:none;block-progression:tb" fill="#fff" d="M7.031 6v.031c-.6 0-1.125.156-1.5.532-.375.375-.531.9-.531 1.5v9.468a.5.5 0 0 0 0 .094.5.5 0 0 0 .438.406.5.5 0 0 0 .03 0 .5.5 0 0 0 .032 0h12.969a.51.51 0 0 0 .468-.375l2.032-7a.51.51 0 0 0-.469-.625h-1.531c-.002-.581-.138-1.128-.5-1.5-.364-.374-.91-.531-1.5-.531h-5.5l-.25-1.563a.5.5 0 0 0-.5-.437H7.03zm0 1.031h3.282l.25 1.563a.5.5 0 0 0 .5.437h5.906c.425 0 .655.09.781.219.124.128.216.365.219.781H7.53a.51.51 0 0 0-.5.344L6 14V8.062c0-.44.084-.677.219-.812s.373-.219.812-.219zm.875 4h11.907L18.063 17H6.188l1.718-5.969z" color="#000" font-family="sans-serif" font-weight="400" overflow="visible" transform="translate(0 1027.362)"></path></g></svg>